<svg xmlns="http://www.w3.org/2000/svg" viewBox="0 0 32 32">
  <defs>
    <linearGradient id="grad1" x1="0%" y1="85%" x2="0%" y2="95%">
      <stop offset="0%" style="stop-color:rgb(0,220,220);stop-opacity:1" />
      <stop offset="100%" style="stop-color:rgb(0,170,170);stop-opacity:1" />
    </linearGradient>
  </defs>
  <!--<rect x="0" y="0" width="32" height="32" fill-opacity="1" fill="#888888" />-->
  <circle cx="16" cy="16" r="16" fill-opacity="1" fill="#FFF" />
  <circle cx="16" cy="16" r="15.3" fill-opacity="1" fill="#333" />
  <g transform="translate(1,3)"> 
    <g transform="scale(0.8)">
      <circle cx="26" cy="5" r="3" fill="rgb(0,220,220)" />
      <path d="M0 0
        m9 2
        c-14 0, 16 28, 2 28
        l18 0
        m-20 -28
        l18 0
        c-14 0, 16 28, 2 28
        m-20 -28
        m0 3 l11 0
        m-9 5 l11 0
        m-9 5 l11 0
        m-9 5 l11 0
        m-9 5 l11 0
        m-1 -23
        c6 0, 0 10, -2.5 4
        c-1 -3, 2 -4, 3 -1
        "
        stroke="black" stroke-width="0.5" fill-opacity="1" fill="url(#grad1)"  />
    </g>
  </g>
  <!--<rect x="3" y="0" width="32" height="32" fill-opacity="0" stroke-width="0.1" stroke="black" />-->
</svg>